<svg width="205" height="39" viewBox="0 0 205 39" fill="none" xmlns="http://www.w3.org/2000/svg">
<path fill-rule="evenodd" clip-rule="evenodd" d="M5.92216 32.725C9.4009 36.1634 14.2068 38.29 19.5152 38.29C24.8235 38.29 29.6293 36.1634 33.108 32.725L60.2939 5.85506C56.8152 2.41669 52.0093 0.290039 46.701 0.290039C41.3926 0.290039 36.5868 2.41669 33.1081 5.85501L33.108 5.85506C29.6293 2.41669 24.8235 0.290039 19.5152 0.290039C8.10786 0.290039 0.889617 8.76747 0.293945 19.5718C0.369483 24.7066 2.50585 29.3484 5.92216 32.725Z" fill="#E42E2C"/>
<path fill-rule="evenodd" clip-rule="evenodd" d="M33.2351 5.87847C29.7429 2.42564 24.9185 0.290039 19.5896 0.290039C8.13813 0.290039 0.891924 8.80314 0.293945 19.6529C0.369776 24.8093 2.51442 29.4706 5.94395 32.8615L33.2351 5.87847Z" fill="url(#paint0_linear_2_1008)"/>
<path d="M74.368 30V7.28H84C85.0453 7.28 86.0053 7.49333 86.88 7.92C87.7547 8.34667 88.512 8.92267 89.152 9.648C89.8133 10.3733 90.3253 11.184 90.688 12.08C91.0507 12.976 91.232 13.8933 91.232 14.832C91.232 16.112 90.9333 17.328 90.336 18.48C89.7387 19.632 88.9173 20.5707 87.872 21.296C86.8267 22.0213 85.5893 22.384 84.16 22.384H78.784V30H74.368ZM78.784 18.512H83.904C84.4373 18.512 84.9173 18.3627 85.344 18.064C85.7707 17.7653 86.112 17.3387 86.368 16.784C86.624 16.208 86.752 15.5573 86.752 14.832C86.752 14.0427 86.6027 13.3707 86.304 12.816C86.0267 12.2613 85.6533 11.8453 85.184 11.568C84.736 11.2907 84.2453 11.152 83.712 11.152H78.784V18.512ZM95.3055 30V7.28H105.354C106.399 7.28 107.359 7.49333 108.234 7.92C109.13 8.34667 109.898 8.92267 110.538 9.648C111.199 10.3733 111.7 11.184 112.042 12.08C112.404 12.976 112.586 13.8933 112.586 14.832C112.586 15.792 112.415 16.72 112.074 17.616C111.754 18.4907 111.284 19.2587 110.666 19.92C110.047 20.5813 109.322 21.0933 108.49 21.456L113.674 30H108.81L104.138 22.384H99.7215V30H95.3055ZM99.7215 18.512H105.258C105.812 18.512 106.303 18.352 106.73 18.032C107.156 17.6907 107.498 17.2427 107.754 16.688C108.01 16.1333 108.138 15.5147 108.138 14.832C108.138 14.1067 107.988 13.4773 107.69 12.944C107.391 12.3893 107.007 11.952 106.538 11.632C106.09 11.312 105.599 11.152 105.066 11.152H99.7215V18.512ZM117.587 30V7.28H122.003V30H117.587ZM141.279 13.232C141.13 13.0827 140.852 12.88 140.447 12.624C140.063 12.368 139.583 12.1227 139.007 11.888C138.452 11.6533 137.844 11.4507 137.183 11.28C136.522 11.088 135.85 10.992 135.167 10.992C133.972 10.992 133.066 11.216 132.447 11.664C131.85 12.112 131.551 12.7413 131.551 13.552C131.551 14.1707 131.743 14.6613 132.127 15.024C132.511 15.3867 133.087 15.696 133.855 15.952C134.623 16.208 135.583 16.4853 136.735 16.784C138.228 17.1467 139.519 17.5947 140.607 18.128C141.716 18.64 142.559 19.3227 143.135 20.176C143.732 21.008 144.031 22.1173 144.031 23.504C144.031 24.72 143.807 25.7653 143.359 26.64C142.911 27.4933 142.292 28.1867 141.503 28.72C140.714 29.2533 139.818 29.648 138.815 29.904C137.812 30.1387 136.746 30.256 135.615 30.256C134.484 30.256 133.354 30.1387 132.223 29.904C131.092 29.6693 130.004 29.3387 128.959 28.912C127.914 28.464 126.954 27.9307 126.079 27.312L128.031 23.504C128.223 23.696 128.564 23.952 129.055 24.272C129.546 24.5707 130.143 24.88 130.847 25.2C131.551 25.4987 132.319 25.7547 133.151 25.968C133.983 26.1813 134.826 26.288 135.679 26.288C136.874 26.288 137.78 26.0853 138.399 25.68C139.018 25.2747 139.327 24.6987 139.327 23.952C139.327 23.2693 139.082 22.736 138.591 22.352C138.1 21.968 137.418 21.6373 136.543 21.36C135.668 21.0613 134.634 20.7413 133.439 20.4C132.01 19.9947 130.815 19.5467 129.855 19.056C128.895 18.544 128.18 17.904 127.711 17.136C127.242 16.368 127.007 15.408 127.007 14.256C127.007 12.6987 127.37 11.3973 128.095 10.352C128.842 9.28533 129.844 8.48533 131.103 7.952C132.362 7.39733 133.759 7.12 135.295 7.12C136.362 7.12 137.364 7.23733 138.303 7.472C139.263 7.70667 140.159 8.016 140.991 8.4C141.823 8.784 142.57 9.2 143.231 9.648L141.279 13.232ZM148.368 30V7.28H152.784V30H148.368ZM167.964 30.16C166.492 30.16 165.095 29.8613 163.772 29.264C162.471 28.6667 161.319 27.8453 160.316 26.8C159.335 25.7333 158.567 24.496 158.012 23.088C157.458 21.68 157.18 20.1547 157.18 18.512C157.18 16.9547 157.458 15.4933 158.012 14.128C158.567 12.7413 159.346 11.5253 160.348 10.48C161.351 9.43467 162.524 8.61333 163.868 8.016C165.212 7.41867 166.674 7.12 168.252 7.12C170.386 7.12 172.21 7.57867 173.724 8.496C175.26 9.392 176.412 10.5867 177.18 12.08L173.884 14.512C173.308 13.3813 172.498 12.5173 171.452 11.92C170.428 11.3227 169.308 11.024 168.092 11.024C167.132 11.024 166.258 11.2267 165.468 11.632C164.679 12.0373 163.996 12.592 163.42 13.296C162.844 14 162.396 14.8107 162.076 15.728C161.778 16.6453 161.628 17.616 161.628 18.64C161.628 19.728 161.788 20.7307 162.108 21.648C162.45 22.5653 162.919 23.3653 163.516 24.048C164.135 24.7307 164.85 25.2747 165.66 25.68C166.471 26.064 167.367 26.256 168.348 26.256C169.5 26.256 170.599 25.9573 171.644 25.36C172.711 24.7627 173.703 23.888 174.62 22.736V27.088C172.722 29.136 170.503 30.16 167.964 30.16ZM174.3 21.552H169.724V18.32H177.948V30H174.3V21.552ZM187.128 15.408V30H182.712V7.28H186.232L197.976 22.256V7.312H202.392V30H198.712L187.128 15.408Z" fill="#E42E2C"/>
<defs>
<linearGradient id="paint0_linear_2_1008" x1="2.66154" y1="22.3045" x2="22.6154" y2="43.0674" gradientUnits="userSpaceOnUse">
<stop stop-opacity="0.01"/>
<stop offset="0.102712" stop-opacity="0.0536334"/>
<stop offset="0.196571" stop-opacity="0.105632"/>
<stop offset="0.3031" stop-opacity="0.191599"/>
<stop offset="0.386504" stop-opacity="0.24536"/>
<stop offset="1"/>
</linearGradient>
</defs>
</svg>
